<!DOCTYPE svg PUBLIC "-//W3C//DTD SVG 1.1//EN" "http://www.w3.org/Graphics/SVG/1.1/DTD/svg11.dtd">
<svg version="1.1" xmlns="http://www.w3.org/2000/svg" width="256" height="256">
	<defs>
		<style type="text/css">
			@font-face {
				font-family: lubalin;
				src: url('LubalinGraphBoldBT.ttf');
			}
		</style>

		<clipPath id="wheels">
			<rect x="10" y="192" width="236" height="20" />
		</clipPath>

		<clipPath id="symbol">
			<path d="M10,44 L10,192 L246,192 L246,44 Q128,100 10,44 Z" />
		</clipPath>
	</defs>
	
	<path d="M10,44 L10,192 L246,192 L246,44 Q128,100 10,44 Z" fill="#ff0000" stroke-width="10" stroke="#ffffff" clip-path="url(#symbol)" />
	<path d="M125,192 l3,0 l80,-80 l20,0 l0,-20 l-20,0 l0,20" fill="none" stroke="#ffffff" stroke-width="7" clip-path="url(#symbol)" />
	<path d="M10,44 L10,192 L246,192 L246,44 Q128,100 10,44 Z" fill="none" stroke-width="1" stroke="#000000" />
	
	<ellipse cx="40" cy="196" rx="10" ry="10" stroke="#000000" fill="none" stroke-width="5" clip-path="url(#wheels)" />
	<ellipse cx="216" cy="196" rx="10" ry="10" stroke="#000000" fill="none" stroke-width="5" clip-path="url(#wheels)" />
</svg>