<!DOCTYPE svg PUBLIC "-//W3C//DTD SVG 1.1//EN" "http://www.w3.org/Graphics/SVG/1.1/DTD/svg11.dtd">
<svg version="1.1" xmlns="http://www.w3.org/2000/svg" width="256" height="256">
	<defs>
		<style type="text/css">
		<![CDATA[
			@font-face {
				font-family: 'LubalGraph Bd BT';
				src: url('LubalinGraphBoldBT.ttf');
			}
		]]>
		</style>

		<clipPath id="body">
			<path d="M64,128 L104,88 L142,88 L192,128 L128,192 Z" clip-path="url(#head)" />
		</clipPath>

		<clipPath id="symbol">
			<path d="M64,128 L128,64 L192,128 L128,192 Z" />
		</clipPath>
	</defs>


	<path d="M64,128 L128,64 L192,128 L128,192 Z" fill="#ffffff" clip-path="symbol" />
	<path d="M64,128 L128,64 L192,128 L128,192 Z" stroke-width="12" stroke="#ffffff" fill="#ff0000" clip-path="url(#body)" />
	<path d="M64,128 L128,64 L192,128 L128,192 Z" stroke-width="2" stroke="#000000" fill="none" />

	<path d="M68,128 l120,0 M144,128 l20,-20 M144,128 l20,20" stroke-width="5" stroke="#ffffff" fill="none" />

	<ellipse cx="100" cy="44" rx="10" ry="10" />
	<ellipse cx="128" cy="44" rx="10" ry="10" />
	<ellipse cx="156" cy="44" rx="10" ry="10" />
</svg>