<svg xmlns="http://www.w3.org/2000/svg" height="256" version="1.1" width="256">
	<defs>
		<style type="text/css">
		
			@font-face {
				font-family: 'LubalGraph Bd BT';
				src: url('LubalinGraphBoldBT.ttf');
			}
		
		</style>
	<clipPath id="person">
			<path d="M64,128 L128,64 L192,128 L128,192 Z" />
		</clipPath>
	</defs>
	<rect fill="#ffffff" height="256" stroke="#dddddd" stroke-width="1" width="256" x="0" y="0" />
	<g id="symbol" transform="scale(0.9) translate(12.8,-10)"><path d="M64,128 L128,64 L192,128 L128,192 Z" fill="none" stroke="#000000" stroke-width="5" />
	<rect clip-path="url(#person)" height="24" width="128" x="64" y="64" />
	<ellipse cx="100" cy="44" rx="10" ry="10" />
	<ellipse cx="156" cy="44" rx="10" ry="10" />
</g>
	<g transform="scale(0.9) translate(12.8,230)">
		<path d="M10,0 l50,0 m12,0 l50,0 m12,0 l50,0 m12,0 l50,0" fill="none" stroke="#000000" stroke-linecap="round" stroke-width="1" />
		<path d="M246,0 l-50,0" fill="none" stroke="#000000" stroke-linecap="round" stroke-width="2" />
		<path d="M66,0 l8,-30 M128,0 l8,-30 M190,0 l8,-30" fill="none" stroke="#000000" stroke-linecap="round" stroke-width="1" />
		<path d="M10,46 l236,0" fill="none" stroke="#000000" stroke-linecap="round" stroke-width="1" />
	</g>
</svg>