<svg xmlns="http://www.w3.org/2000/svg" height="256" version="1.1" width="256">
	<defs>
		<style type="text/css">
		
			@font-face {
				font-family: 'LubalGraph Bd BT';
				src: url('LubalinGraphBoldBT.ttf');
			}
		
		</style>
	</defs>
	<rect fill="#ffffff" height="256" stroke="#dddddd" stroke-width="1" width="256" x="0" y="0" />
	<g id="symbol" transform="scale(0.9) translate(12.8,-10)"><rect fill="#ffffff" height="128" stroke="#000000" stroke-width="5" width="236" x="10" y="64" />
	<path d="M128,64 l0,128 M10,128 l236,0" fill="none" stroke="#000000" stroke-width="5" />
	
	<ellipse cx="64" cy="48" fill="#000000" rx="10" ry="10" />
	<ellipse cx="192" cy="48" fill="#000000" rx="10" ry="10" />

	<ellipse cx="128" cy="128" fill="none" rx="32" ry="32" stroke="#000000" stroke-width="5" />
	<path d="M128,128 l32,0 l-64,0 m32,0 l0,32 l0,-64" fill="none" stroke="#000000" stroke-width="5" transform="rotate(45,128,128)" />
</g>
	<g transform="scale(0.9) translate(12.8,230)">
		<path d="M10,0 l50,0 m12,0 l50,0 m12,0 l50,0 m12,0 l50,0" fill="none" stroke="#000000" stroke-linecap="round" stroke-width="1" />
		<path d="M246,0 l-50,0" fill="none" stroke="#000000" stroke-linecap="round" stroke-width="2" />
		<path d="M66,0 l8,-30 M128,0 l8,-30 M190,0 l8,-30" fill="none" stroke="#000000" stroke-linecap="round" stroke-width="1" />
		<path d="M10,46 l236,0" fill="none" stroke="#000000" stroke-linecap="round" stroke-width="1" />
	</g>
</svg>