<!DOCTYPE svg PUBLIC "-//W3C//DTD SVG 1.1//EN" "http://www.w3.org/Graphics/SVG/1.1/DTD/svg11.dtd">
<svg version="1.1" xmlns="http://www.w3.org/2000/svg" width="256" height="256" shape-rendering="cripsEdges">
	<defs>
		<style type="text/css">
		<![CDATA[
			@font-face {
				font-family: 'LubalGraph Bd BT';
				src: url('LubalinGraphBoldBT.ttf');
			}
		]]>
		</style>
	</defs>
	<rect x="0" y="0" width="256" height="256" stroke="#dddddd" stroke-width="1" fill="#ffffff"/>
	<g transform="scale(0.9) translate(12.8,-10)" id="symbol">
		
<svg version="1.1" xmlns="http://www.w3.org/2000/svg" width="256" height="256">
	<defs>
		<style type="text/css">
		<![CDATA[
			@font-face {
				font-family: 'LubalGraph Bd BT';
				src: url('LubalinGraphBoldBT.ttf');
			}
		]]>
		</style>

		<clipPath id="body">
			<path d="M64,128 L104,88 L142,88 L192,128 L128,192 Z" clip-path="url(#head)" />
		</clipPath>

		<clipPath id="symbol">
			<path d="M64,128 L128,64 L192,128 L128,192 Z" />
		</clipPath>
	</defs>

	<path d="M64,128 L128,64 L192,128 L128,192 Z" fill="#ffffff" clip-path="symbol" />
	<path d="M64,128 L128,64 L192,128 L128,192 Z" stroke-width="12" stroke="#ffffff" fill="#003399" clip-path="url(#body)" />
	<path d="M64,128 L128,64 L192,128 L128,192 Z" stroke-width="2" stroke="#000000" fill="none" />

	<ellipse cx="100" cy="44" rx="10" ry="10" />
	<ellipse cx="128" cy="44" rx="10" ry="10" />
	<ellipse cx="156" cy="44" rx="10" ry="10" />
	<text x="128" y="128" font-family="LubalGraph Bd BT" font-size="300%" fill="#ffffff" alignment-baseline="central" text-anchor="middle">TZ</text>
</svg>
	</g>
	<g transform="scale(0.9) translate(12.8,230)">
		<path  d="M10,0 l50,0 m12,0 l50,0 m12,0 l50,0 m12,0 l50,0" stroke="#000000" fill="none" stroke-width="1" stroke-linecap="round" />
		<path  d="M246,0 l-50,0" stroke-linecap="round" stroke="#000000" fill="none" stroke-width="2" />
		<path d="M66,0 l8,-30 M128,0 l8,-30 M190,0 l8,-30" stroke="#000000" fill="none" stroke-width="1" stroke-linecap="round" />
		<path d="M10,46 l236,0" stroke-linecap="round" stroke="#000000" fill="none" stroke-width="1" />
	</g>
</svg>