<svg xmlns="http://www.w3.org/2000/svg" height="256" version="1.1" width="256">
	<defs>
		<style type="text/css">
		
			@font-face {
				font-family: 'LubalGraph Bd BT';
				src: url('LubalinGraphBoldBT.ttf');
			}
		
		</style>
	<clipPath id="symbol">
			<rect height="128" width="236" x="10" y="64" />
		</clipPath>
	</defs>
	<rect fill="#ffffff" height="256" stroke="#dddddd" stroke-width="1" width="256" x="0" y="0" />
	<g id="symbol" transform="scale(0.9) translate(12.8,-10)"><rect clip-path="url(#symbol)" fill="#003399" height="128" stroke="#ffffff" stroke-width="10" width="236" x="10" y="64" />
	<rect fill="none" height="128" stroke="#000000" stroke-width="1" width="236" x="10" y="64" />

	
	<ellipse cx="128" cy="48" fill="#000000" rx="10" ry="10" />

	
	<ellipse cx="64" cy="86" fill="#ffffff" rx="10" ry="10" />
	<ellipse cx="128" cy="86" fill="#ffffff" rx="10" ry="10" />
	<ellipse cx="192" cy="86" fill="#ffffff" rx="10" ry="10" />

	
	<text alignment-baseline="mathematical" fill="#ffffff" font-family="LubalGraph Bd BT" font-size="300%" text-anchor="middle" x="128" y="128">TZ</text>
	<text fill="#ffffff" font-family="LubalGraph Bd BT" text-anchor="end" x="236" y="180">THW</text>
</g>
	<g transform="scale(0.9) translate(12.8,230)">
		<path d="M10,0 l50,0 m12,0 l50,0 m12,0 l50,0 m12,0 l50,0" fill="none" stroke="#000000" stroke-linecap="round" stroke-width="1" />
		<path d="M246,0 l-50,0" fill="none" stroke="#000000" stroke-linecap="round" stroke-width="2" />
		<path d="M66,0 l8,-30 M128,0 l8,-30 M190,0 l8,-30" fill="none" stroke="#000000" stroke-linecap="round" stroke-width="1" />
		<path d="M10,46 l236,0" fill="none" stroke="#000000" stroke-linecap="round" stroke-width="1" />
	</g>
</svg>