<!DOCTYPE svg PUBLIC "-//W3C//DTD SVG 1.1//EN" "http://www.w3.org/Graphics/SVG/1.1/DTD/svg11.dtd">
<svg version="1.1" xmlns="http://www.w3.org/2000/svg" width="256" height="256">
	<defs>
		<style type="text/css">
		<![CDATA[
			@font-face {
				font-family: 'Roboto Slab Bold';
				src: url('RobotoSlab-Bold.ttf');
			}
		]]>
		</style>

		<clipPath id="wheels">
			<rect x="10" y="192" width="236" height="20" />
		</clipPath>
		<clipPath id="symbol">
			<path d="M10,44 L10,192 L246,192 L246,44 Q128,100 10,44 Z" />
		</clipPath>

	</defs>

	

	
	<path d="M10,44 L10,192 L246,192 L246,44 Q128,100 10,44 Z" fill="#FFFFFF" stroke-width="10" stroke="#000000" clip-path="url(#symbol)" />

	
	<path d="M10,44 L10,192 L246,192 L246,44 Q128,100 10,44 Z" fill="none" stroke-width="1" stroke="#000000" />
	


	<path d="M24,195 l208,0 a10,10 180 0 1 0,20 l-208,0 a10,10 180 0 1 0,-20 Z" stroke="#000000" fill="none" stroke-width="5" />

	



	<text font-family="Roboto Slab Bold" font-size="300%" fill="" dominant-baseline="central" text-anchor="middle" x="128" y="128"></text>

	<text font-family="Roboto Slab Bold" fill="" text-anchor="end" x="236" y="180"></text>
</svg>