<!DOCTYPE svg PUBLIC "-//W3C//DTD SVG 1.1//EN" "http://www.w3.org/Graphics/SVG/1.1/DTD/svg11.dtd">
<svg version="1.1" xmlns="http://www.w3.org/2000/svg" width="256" height="256">
	<defs>
		{{#if entstehungsbrand}}
		<clipPath id="flamme1">
			<path d="M103,192 l40,-128 l0,128 Z" />
		</clipPath>
		{{/if}}

		{{#if vollbrand}}
		<clipPath id="flamme1">
			<path d="M103,192 l40,-128 l0,128 Z" />
		</clipPath>
		<clipPath id="flamme2">
			<path d="M63,192 l40,-128 l0,128 Z" />
		</clipPath>
		<clipPath id="flamme3">
			<path d="M143,192 l40,-128 l0,128 Z" />
		</clipPath>
		{{/if}}

		{{#if flächenbrand}}
		<clipPath id="flamme1">
			<path d="M103,192 l40,-128 l0,128 Z" />
		</clipPath>
		<clipPath id="flamme2">
			<path d="M63,192 l40,-128 l0,128 Z" />
		</clipPath>
		<clipPath id="flamme3">
			<path d="M143,192 l40,-128 l0,128 Z" />
		</clipPath>
		{{/if}}

		{{#if fortentwickelt}}
		<clipPath id="flamme1">
			<path d="M83,192 l40,-128 l0,128 Z" />
		</clipPath>
		<clipPath id="flamme2">
			<path d="M123,192 l40,-128 l0,128 Z" />
		</clipPath>
		{{/if}}
	</defs>
	
	{{#if vollbrand}}
	<path d="M103,192 l40,-128 l0,128 Z" stroke-width="10" stroke="#ff0000" fill="none" clip-path="url(#flamme1)" />
	<path d="M63,192 l40,-128 l0,128 Z" stroke-width="10" stroke="#ff0000" fill="none" clip-path="url(#flamme2)" />
	<path d="M143,192 l40,-128 l0,128 Z" stroke-width="10" stroke="#ff0000" fill="none" clip-path="url(#flamme3)" />
	{{/if}}

	{{#if entstehungsbrand}}
	<path d="M103,192 l40,-128 l0,128 Z" stroke-width="10" stroke="#ff0000" fill="none" clip-path="url(#flamme1)" />
	{{/if}}

	{{#if fortentwickelt}}
	<path d="M83,192 l40,-128 l0,128 Z" stroke-width="10" stroke="#ff0000" fill="none" clip-path="url(#flamme1)" />
	<path d="M123,192 l40,-128 l0,128 Z" stroke-width="10" stroke="#ff0000" fill="none" clip-path="url(#flamme2)" />
	{{/if}}

	{{#if flächenbrand}}
	<path d="M103,192 l40,-128 l0,128 Z" stroke-width="10" stroke="#ff0000" fill="none" clip-path="url(#flamme1)" />
	<path d="M63,192 l40,-128 l0,128 Z" stroke-width="10" stroke="#ff0000" fill="none" clip-path="url(#flamme2)" />
	<path d="M143,192 l40,-128 l0,128 Z" stroke-width="10" stroke="#ff0000" fill="none" clip-path="url(#flamme3)" />
	<ellipse cx="128" cy="128" rx="108" ry="86" stroke-width="5" stroke="#ff0000" fill="none" />
	{{/if}}
</svg>