<!DOCTYPE svg PUBLIC "-//W3C//DTD SVG 1.1//EN" "http://www.w3.org/Graphics/SVG/1.1/DTD/svg11.dtd">
<svg version="1.1" xmlns="http://www.w3.org/2000/svg" width="256" height="256">
	<defs>
		<style type="text/css">
		<![CDATA[
			@font-face {
				font-family: 'LubalGraph Bd BT';
				src: url('LubalinGraphBoldBT.ttf');
			}
		]]>
		</style>

		<clipPath id="symbol">
			<rect x="10" y="64" width="236" height="128" />
		</clipPath>
	</defs>
	<rect x="10" y="64" width="236" height="128" fill="{{ color_primary }}" stroke="{{ color_secondary }}" stroke-width="10" clip-path="url(#symbol)" />
	<rect x="10" y="64" width="236" height="128" fill="none" stroke="{{ stroke_color }}" stroke-width="1" />

	{{#if platoon}}
	<ellipse cx="64"  cy="48" rx="10" ry="10" fill="#000000" />
	<ellipse cx="128" cy="48" rx="10" ry="10" fill="#000000" />
	<ellipse cx="192" cy="48" rx="10" ry="10" fill="#000000" />
	{{/if}}

	{{#if group}}
	<ellipse cx="64"  cy="48" rx="10" ry="10" fill="#000000" />
	<ellipse cx="192" cy="48" rx="10" ry="10" fill="#000000" />
	{{/if}}

	{{#if squad}}
	<ellipse cx="128" cy="48" rx="10" ry="10" fill="#000000" />
	{{/if}}

	{{#if zugtrupp}}
	<ellipse cx="128" cy="48" rx="10" ry="10" fill="#000000" />
	<ellipse cx="64"  cy="86" rx="10" ry="10" fill="#ffffff" />
	<ellipse cx="128" cy="86" rx="10" ry="10" fill="#ffffff" />
	<ellipse cx="192" cy="86" rx="10" ry="10" fill="#ffffff" />
	{{/if}}

	<!-- Texte -->
	<text font-size="300%" fill="{{ color_text }}" font-family="LubalGraph Bd BT" dominant-baseline="central" text-anchor="middle" x="128" y="128">{{ unit }}</text>
	{{#if denominator}}
	<text fill="{{ color_text }}" font-family="LubalGraph Bd BT"  text-anchor="start" x="20" y="180">{{ denominator }}</text>
	{{/if}}
	<text fill="{{ color_text }}" font-family="LubalGraph Bd BT"  text-anchor="end" x="236" y="180">{{ organization }}</text>
</svg>