<!DOCTYPE svg PUBLIC "-//W3C//DTD SVG 1.1//EN" "http://www.w3.org/Graphics/SVG/1.1/DTD/svg11.dtd">
<svg version="1.1" xmlns="http://www.w3.org/2000/svg" width="256" height="256">
	<path d="M50,192 L128,64 L206,192 Z" stroke-width="5" stroke="#000000" fill="none" />

	{{#if survey}}
	<path d="M50,192 L180,150" stroke-width="5" stroke="#000000" fill="none" />
	{{/if}}

	{{#if bridge}}
	<path d="M88,150 l10,10 l60,0 l10,-10 M88,180 l10,-10 l60,0 l10,10" stroke-width="5" stroke="#000000" fill="none" />
	{{/if}}

	{{#if decontaminate}}
	<path d="M104,128 l50,50 M152,128 l-50,50" stroke-width="8" stroke="#000000" fill="none" />

	<path d="M108,182 L98,182 L98,172 Z" fill="#000000" />
	<path d="M148,182 L158,182 L158,172 Z" fill="#000000" />

	<ellipse cx="104" cy="134" rx="10" ry="10" fill="#000000" />
	<ellipse cx="152" cy="134" rx="10" ry="10" fill="#000000" />
	{{/if}}

	{{#if cleanup}}
	<path d="M96,160 L150,160 l0,-15 l0,25 l20,10" stroke-width="5" stroke="#000000" fill="none" />
	{{/if}}

	{{#if blast}}
	<path d="M116,116 a12,64 180 0 0 24,0 Z" fill="#000000" />
	{{/if}}
</svg>