<!DOCTYPE svg PUBLIC "-//W3C//DTD SVG 1.1//EN" "http://www.w3.org/Graphics/SVG/1.1/DTD/svg11.dtd">
<svg version="1.1" xmlns="http://www.w3.org/2000/svg" width="256" height="256">
	<defs>
		<style type="text/css">
		<![CDATA[
			@font-face {
				font-family: 'LubalGraph Bd BT';
				src: url('LubalinGraphBoldBT.ttf');
			}
		]]>
		</style>
		<clipPath id="person">
			<path d="M64,128 L128,64 L192,128 L128,192 Z" />
		</clipPath>
	</defs>

	{{#if stroke_width }}
	<path d="M64,128 L128,64 L192,128 L128,192 Z" stroke-width="{{ stroke_width }}" stroke="{{ color_secondary }}" fill="{{ color_primary }}" />
	{{else}}
	<path d="M64,128 L128,64 L192,128 L128,192 Z" stroke-width="5" stroke="{{ color_secondary }}" fill="{{ color_primary }}" />
	{{/if}}

	{{#if special_function}}
	{{#if stroke_width }}
	<rect x="64" y="64" width="128" height="24" clip-path="url(#person)" fill="{{ color_secondary }}" stroke="#000000" stroke-width="{{ stroke_width }}" />
	{{else}}
	<rect x="64" y="64" width="128" height="24" clip-path="url(#person)" fill="{{ color_secondary }}" stroke="#000000" stroke-width="2" />
	{{/if}}
	{{/if}}

	{{#if truppführer}}
	<rect x="64" y="64" width="128" height="24" fill="{{ color_secondary }}" clip-path="url(#person)" />
	<ellipse cx="128" cy="44" rx="10" ry="10" fill="{{ stroke_color }}" />
	{{/if}}

	{{#if gruppenführer}}
	<rect x="64" y="64" width="128" height="24" fill="{{ color_secondary }}" clip-path="url(#person)" />
	<ellipse cx="100" cy="44" rx="10" ry="10" fill="{{ stroke_color }}" />
	<ellipse cx="156" cy="44" rx="10" ry="10" fill="{{ stroke_color }}" />
	{{/if}}

	{{#if zugführer}}
	<rect x="64" y="64" width="128" height="24" fill="{{ color_secondary }}" clip-path="url(#person)" />
	<ellipse cx="100" cy="44" rx="10" ry="10" fill="{{ stroke_color }}" />
	<ellipse cx="128" cy="44" rx="10" ry="10" fill="{{ stroke_color }}" />
	<ellipse cx="156" cy="44" rx="10" ry="10" fill="{{ stroke_color }}" />
	{{/if}}

	{{#if zugführer_thw}}
	<path d="M64,128 L128,64 L192,128 L128,192 Z" stroke-width="12" stroke="{{ color_secondary }}" fill="{{ color_primary }}" clip-path="url(#person)" />
	<rect x="64" y="64" width="128" height="24" fill="{{ color_secondary }}" clip-path="url(#person)" />
	<ellipse cx="100" cy="44" rx="10" ry="10" fill="{{ stroke_color }}" />
	<ellipse cx="128" cy="44" rx="10" ry="10" fill="{{ stroke_color }}" />
	<ellipse cx="156" cy="44" rx="10" ry="10" fill="{{ stroke_color }}" />
	{{/if}}

	{{#if zugführer_löschzug}}
	<path d="M68,128 l120,0 M144,128 l20,-20 M144,128 l20,20" stroke-width="5" stroke="{{ color_secondary }}" fill="none" />
	<ellipse cx="100" cy="44" rx="10" ry="10" />
	<ellipse cx="128" cy="44" rx="10" ry="10" />
	<ellipse cx="156" cy="44" rx="10" ry="10" />
	{{/if}}

	{{#if stroke_width }}
	<path d="M64,128 L128,64 L192,128 L128,192 Z" stroke-width="{{ stroke_width }}" stroke="{{ stroke_color }}" fill="none" />
	{{else}}
	<path d="M64,128 L128,64 L192,128 L128,192 Z" stroke-width="2" stroke="{{ stroke_color }}" fill="none" />
	{{/if}}

	{{#if missing}}
	<path d="M57,121 l64,-64 M135,199 l64,-64" stroke-width="5" stroke="#000000" />
	{{/if}}

	{{#if spilled}}
	<line x1="64" x2="192" y1="64" y2="64" stroke="#000000" stroke-width="7" />
	{{/if}}

	{{#if hurt}}
	<line stroke="#000000" stroke-width="2" x1="128" y1="64" x2="128" y2="192" />
	{{/if}}

	{{#if dead}}
	<line stroke="#000000" stroke-width="2" x1="128" y1="64" x2="128" y2="192" />
	<rect x="64" y="64" width="128" height="24" clip-path="url(#person)" fill="none" stroke="#000000" stroke-width="2" />
	{{/if}}

	{{#if to_be_moved}}
	<line x1="64" x2="182" y1="192" y2="192" stroke="#000000" stroke-width="3" />
	<path d="M182,182 L192,192 L182,202 Z" />
	{{/if}}

	{{#if moved}}
	<line x1="64" x2="182" y1="192" y2="192" stroke="#000000" stroke-width="3" />
	<path d="M182,182 L192,192 L182,202 Z" />
	<path d="M192,192 l0,10 l0,-20" stroke="#000000" stroke-width="2" />
	{{/if}}

	{{#if saved}}
	<line x1="64" x2="192" y1="192" y2="192" stroke="#000000" stroke-width="7" />
	{{/if}}

	{{#if rettungswesen}}
	<path d="M64,128 l128,0 M128,64 l0,128" stroke="{{ stroke_color }}" stroke-width="5" fill="none" />
	{{/if}}

	{{#if betreuungswesen}}
	<path d="M96,160 l32,-32 l32,32" stroke="{{ stroke_color }}" stroke-width="5" fill="none" />
	{{/if}}

	{{#if technik_und_sicherheit}}
	<path d="M94,148 a10,10 0 0,0 0,-20 M104,138 L152,138 m10,10 a10,10 0 0,1 0,-20" fill="none" stroke="{{ stroke_color }}" stroke-width="5" />
	<text font-size="200%" fill="{{ color_text }}" font-family="LubalGraph Bd BT" dominant-baseline="bottom" text-anchor="middle" x="128" y="130">TS</text>
	{{/if}}

	{{#if verpflegung}}
	<path d="M128,130 l20,-10 a20 20 0 1 0 0,20 Z" stroke="#000000" stroke-width="5" fill="none" />
	{{/if}}

	{{#if unit}}
	{{#if font_size}}
	<text x="128" y="128" font-family="LubalGraph Bd BT" font-size="{{ font_size }}" dominant-baseline="central" fill="{{ color_text }}" text-anchor="middle">{{ unit }}</text>
	{{else}}
	<text x="128" y="128" font-family="LubalGraph Bd BT" font-size="300%" dominant-baseline="central" fill="{{ color_text }}" text-anchor="middle">{{ unit }}</text>
	{{/if}}
	{{/if}}
</svg>