<!DOCTYPE svg PUBLIC "-//W3C//DTD SVG 1.1//EN" "http://www.w3.org/Graphics/SVG/1.1/DTD/svg11.dtd">
<svg version="1.1" xmlns="http://www.w3.org/2000/svg" width="256" height="256">
	<defs>
		<style type="text/css">
		<![CDATA[
			@font-face {
				font-family: 'LubalGraph Bd BT';
				src: url('LubalinGraphBoldBT.ttf');
			}
		]]>
		</style>
		<clipPath id="person">
			<path d="M64,128 L128,64 L192,128 L128,192 Z" />
		</clipPath>
	</defs>

	<path d="M64,128 L128,64 L192,128 L128,192 Z" stroke-width="5" stroke="#000000" fill="none" />

	{{#if missing}}
	<path d="M57,121 l64,-64 M135,199 l64,-64" stroke-width="5" stroke="#000000" />
	{{/if}}

	{{#if spilled}}
	<line x1="64" x2="192" y1="64" y2="64" stroke="#000000" stroke-width="7" />
	{{/if}}

	{{#if hurt}}
	<line stroke="#000000" stroke-width="5" x1="128" y1="64" x2="128" y2="192" />
	{{/if}}

	{{#if dead}}
	<line stroke="#000000" stroke-width="5" x1="128" y1="64" x2="128" y2="192" />
	<rect x="64" y="64" width="128" height="24" clip-path="url(#person)" fill="none" stroke="#000000" stroke-width="5" />
	{{/if}}

	{{#if to_be_moved}}
	<line x1="64" x2="182" y1="192" y2="192" stroke="#000000" stroke-width="3" />
	<path d="M182,182 L192,192 L182,202 Z" />
	{{/if}}

	{{#if saved}}
	<line x1="64" x2="192" y1="192" y2="192" stroke="#000000" stroke-width="7" />
	{{/if}}

	{{#if special_function}}
	<rect x="64" y="64" width="128" height="24" clip-path="url(#person)" fill="none" stroke="#000000" stroke-width="5" />
	{{/if}}
</svg>