<!DOCTYPE svg PUBLIC "-//W3C//DTD SVG 1.1//EN" "http://www.w3.org/Graphics/SVG/1.1/DTD/svg11.dtd">
<svg version="1.1" xmlns="http://www.w3.org/2000/svg" width="256" height="256">
	{{#if ausgefüllt}}
	<path d="M10,64 l0,128 l236,0 l0,-128 m0,40 l-236,0" stroke="#000000" stroke-width="5" fill="none" />
	{{/if}}

	{{#if schichtung}}
	<g transform="skewX(-45) translate(145,0)">
		<line x1="98" x2="98" y1="52" y2="192" stroke-width="5" stroke="#000000" />
		<line x1="118" x2="118" y1="52" y2="192" stroke-width="5" stroke="#000000" />
		<line x1="138" x2="138" y1="52" y2="192" stroke-width="5" stroke="#000000" />
		<line x1="158" x2="158" y1="52" y2="192" stroke-width="5" stroke="#000000" />
	</g>
	
	<path d="M10,64 l0,128 l236,0 l0,-128 m0,40 l-236,0" stroke="#000000" stroke-width="5" fill="none" />
	{{/if}}

	{{#if wasser}}
	<path d="M108,70 l20,30 l20,-30 Z" stroke="#000000" stroke-width="5" fill="none" />
	<path d="M10,64 l0,128 l236,0 l0,-128 m0,40 l-236,0" stroke="#000000" stroke-width="5" fill="none" />
	{{/if}}

	{{#if angeschlagen}}
	<line x1="90" x2="237" y1="68" y2="68" stroke="#000000" stroke-width="5" fill="none" transform="rotate(30,128,128)" />
	<path d="M10,64 l0,128 l236,0 l0,-128 Z" fill="none" stroke="#000000" stroke-width="5" />
	{{/if}}

	{{#if schwalbennest}}
	<path d="M128,64 l-118,0 l0,128 l236,0 l0,-60" stroke="#000000" stroke-width="5" fill="none" />
	{{/if}}

	{{#if halb}}
	<line x1="2" y1="60" x2="192" y2="192" stroke="#000000" stroke-width="5" />
	<path d="M10,64 l0,128 l236,0" fill="none" stroke="#000000" stroke-width="5" />
	{{/if}}
</svg>