<?xml version="1.0" encoding="UTF-8" standalone="no"?>
<svg xmlns="http://www.w3.org/2000/svg" width="256" height="256" version="1.1">
  <path d="m 68,127.5 c 48.33333,0 96.66667,0 145,0 M 67.358279,127.37861 c -21.238852,0.0407 -42.477703,0.0816 -63.7165545,0.12216 C 14.245524,86.041807 24.849246,44.582824 35.453006,3.1238508 46.088094,44.542105 56.7232,85.960354 67.358279,127.37861 Z m 145.124811,0.48991 C 223.82769,86.289517 235.1723,44.710513 246.5169,3.1315096 M 180.48418,252.87524 c 10.55542,-40.96624 21.11084,-81.93248 31.66626,-122.89872 10.78876,40.66877 21.57753,81.33753 32.36629,122.0063 m -209.032589,0.89411 c 10.555277,-41.58361 21.110553,-83.16722 31.66583,-124.75083 10.788598,41.28167 21.577197,82.56334 32.365795,123.84501" stroke="#000000" stroke-width="1" fill="none"/>
</svg>
