<!DOCTYPE svg PUBLIC "-//W3C//DTD SVG 1.1//EN" "http://www.w3.org/Graphics/SVG/1.1/DTD/svg11.dtd">
<svg version="1.1" xmlns="http://www.w3.org/2000/svg" width="256" height="256">
	{{#if digital}}
	<path d="M10,58 l90,0 l0,56 l56,0 l0,-56 l90,0" stroke="{{ stroke_color }}" stroke-width="5" fill="none" />
	{{/if}}

	<path d="M10,128 l236,0" stroke="{{ stroke_color }}" stroke-width="5" fill="none" />

	{{#if funk}}
	<path d="M38,138 l30,30 l30,-30 l30,30 l30,-30 l30,30, l30,-30" stroke="{{ stroke_color }}" stroke-width="5" fill="none" />
	{{/if}}

	{{#if relaisfunkbetrieb}}
	<path d="M32,178 a20,20 0 0,0 0,-40 M50,150 l18,18 l30,-30 l30,30 l30,-30 l30,30, l17,-17 M224,178 a20,20 0 0,1 0,-40" stroke="#000000" stroke-width="5" fill="none" />
	{{/if}}
</svg>